<svg width="164" height="164" viewBox="0 0 164 164" fill="none" xmlns="http://www.w3.org/2000/svg">
<rect width="164" height="164" fill="#00AB37"/>
<path fill-rule="evenodd" clip-rule="evenodd" d="M109.777 66.0358C98.257 63.8091 89.4574 61.6891 87.5241 61.2091L87.5108 61.0625L87.4974 61.0225C89.5241 60.5958 99.471 58.7025 110.257 59.6891C129.724 61.4758 127.471 35.2358 111.964 39.7958C117.604 25.0091 95.7908 19.0758 92.0441 38.4491C89.8041 50.0491 87.6574 58.8758 87.2041 60.7292C87.1641 60.7158 87.1241 60.7158 87.0841 60.7158L87.0308 60.7292C86.6174 58.7158 84.7108 48.7692 85.6974 37.9692C87.4841 18.5025 61.2441 20.7558 65.8041 36.2624C51.0041 30.6224 45.0841 52.4224 64.4574 56.1691C76.0441 58.4224 84.8708 60.5558 86.7374 61.0091C86.7241 61.0491 86.7108 61.1025 86.7241 61.1425V61.1958C84.6708 61.6225 74.7374 63.5158 63.9641 62.5291C44.5108 60.7425 46.7508 86.9824 62.2574 82.4224C56.6174 97.2091 78.4308 103.129 82.1774 83.7558C84.1641 73.5558 86.0574 65.4891 86.7908 62.4358C87.0974 68.4491 86.4841 74.4758 85.2441 80.3424C83.9241 86.6491 81.9374 92.8091 79.8574 98.9425C77.6841 105.036 75.6841 111.423 74.8574 118.009C73.9641 124.596 74.1108 131.382 75.4041 137.969V137.982L75.4174 138.049C75.6574 139.076 76.6841 139.716 77.7108 139.476C78.7508 139.223 79.3908 138.196 79.1508 137.169C77.7108 131.036 77.3108 124.676 77.9241 118.369C78.2174 115.209 78.7508 112.063 79.4841 108.956C80.2041 105.836 81.1508 102.782 82.0841 99.6491C83.9374 93.4091 85.6974 87.1025 86.7774 80.6358C87.6574 75.4625 88.0574 70.1958 87.8174 64.9558C88.4574 69.2225 89.2308 76.5158 88.5241 84.2491C86.7374 103.702 112.991 101.463 108.431 85.9558C123.217 91.5958 129.151 69.7825 109.777 66.0358Z" fill="white"/>
</svg>
